<?xml version="1.0" encoding="UTF-8" standalone="no"?>
<svg
   xmlns:dc="http://purl.org/dc/elements/1.1/"
   xmlns:cc="http://creativecommons.org/ns#"
   xmlns:rdf="http://www.w3.org/1999/02/22-rdf-syntax-ns#"
   xmlns:svg="http://www.w3.org/2000/svg"
   xmlns="http://www.w3.org/2000/svg"
   viewBox="0 0 1098.0586 421.9382"
   height="421.9382"
   width="1098.0586"
   xml:space="preserve"
   version="1.1"
   id="svg2"><metadata
     id="metadata8"><rdf:RDF><cc:Work
         rdf:about=""><dc:format>image/svg+xml</dc:format><dc:type
           rdf:resource="http://purl.org/dc/dcmitype/StillImage" /><dc:title></dc:title></cc:Work></rdf:RDF></metadata><defs
     id="defs6"><clipPath
       id="clipPath22"
       clipPathUnits="userSpaceOnUse"><path
         id="path24"
         d="M 0,768 1366,768 1366,0 0,0 0,768 Z" /></clipPath></defs><g
     transform="matrix(1.25,0,0,-1.25,-294.945,728.31414)"
     id="g10"><path
       id="path12"
       style="fill:#ffffff;fill-opacity:1;fill-rule:nonzero;stroke:none"
       d="m 261.04,336.114 -25.084,0 0,122.632 25.084,0 0,-122.632 z" /><g
       transform="translate(393.5156,458.7466)"
       id="g14"><path
         id="path16"
         style="fill:#ffffff;fill-opacity:1;fill-rule:nonzero;stroke:none"
         d="m 0,0 0,-124.862 -8.36,0 -70.979,75.81 0,-73.58 -25.084,0 0,124.862 8.176,0 71.163,-75.252 0,73.022 L 0,0 Z" /></g><g
       transform="translate(658.2734,386.8403)"
       id="g26"><path
         id="path28"
         style="fill:#ffffff;fill-opacity:1;fill-rule:nonzero;stroke:none"
         d="m 0,0 c 0,-16.104 -4.862,-28.956 -14.584,-38.555 -9.725,-9.601 -22.204,-14.401 -37.442,-14.401 -15.236,0 -27.716,4.8 -37.44,14.401 -9.722,9.599 -14.585,22.451 -14.585,38.555 l 0,71.906 25.084,0 0,-73.764 c 0,-8.92 2.508,-15.795 7.526,-20.625 5.015,-4.831 11.487,-7.246 19.415,-7.246 8.053,0 14.554,2.415 19.51,7.246 4.954,4.83 7.432,11.705 7.432,20.625 l 0,73.764 L 0,71.906 0,0 Z" /></g><g
       transform="translate(791.4902,458.7466)"
       id="g30"><path
         id="path32"
         style="fill:#ffffff;fill-opacity:1;fill-rule:nonzero;stroke:none"
         d="m 0,0 -54.628,-124.862 -8.36,0 L -117.801,0 -89.373,0 -58.716,-74.323 -28.243,0 0,0 Z" /></g><g
       transform="translate(1095.5439,454.6597)"
       id="g34"><path
         id="path36"
         style="fill:#ffffff;fill-opacity:1;fill-rule:nonzero;stroke:none"
         d="M 0,0 C 6.874,-4.212 12.232,-9.848 16.073,-16.909 L -1.021,-30.101 c -6.319,9.414 -14.121,14.121 -23.412,14.121 -4.336,0 -7.959,-1.022 -10.869,-3.066 -2.912,-2.043 -4.366,-4.986 -4.366,-8.826 0,-3.22 1.083,-5.791 3.25,-7.711 2.168,-1.92 5.853,-4.056 11.056,-6.41 l 13.935,-6.132 c 10.282,-4.583 17.899,-9.63 22.855,-15.143 4.954,-5.512 7.431,-12.417 7.431,-20.717 0,-11.148 -4.025,-20.067 -12.076,-26.756 -8.052,-6.69 -18.334,-10.034 -30.845,-10.034 -10.406,0 -19.726,2.446 -27.964,7.339 -8.237,4.893 -14.708,11.489 -19.417,19.788 l 17.282,13.008 c 8.547,-11.892 18.58,-17.838 30.099,-17.838 5.45,0 9.725,1.207 12.822,3.623 3.095,2.416 4.645,5.73 4.645,9.941 0,2.477 -0.713,4.676 -2.137,6.596 -1.424,1.92 -3.036,3.375 -4.831,4.366 -1.796,0.992 -4.676,2.415 -8.64,4.274 l -13.193,5.946 c -9.537,4.335 -16.877,9.29 -22.018,14.864 -5.142,5.575 -7.711,12.387 -7.711,20.439 0,10.405 3.841,18.798 11.52,25.177 7.68,6.379 17.405,9.569 29.172,9.569 C -15.019,6.317 -6.874,4.211 0,0" /></g><g
       transform="translate(833.2881,436.0215)"
       id="g38"><path
         id="path40"
         style="fill:#ffffff;fill-opacity:1;fill-rule:nonzero;stroke:none"
         d="m 0,0 0,0.058 57.415,0 0,22.667 -82.499,0 L -25.084,0 0,0 Z" /></g><g
       transform="translate(833.2881,358.7832)"
       id="g42"><path
         id="path44"
         style="fill:#ffffff;fill-opacity:1;fill-rule:nonzero;stroke:none"
         d="m 0,0 0,31.03 42.179,0 0,21.367 -42.179,0 0,0.029 -25.084,0 0,-75.095 84.73,0 L 59.646,0 0,0 Z" /></g><g
       transform="translate(983.4121,384.4238)"
       id="g46"><path
         id="path48"
         style="fill:#ffffff;fill-opacity:1;fill-rule:nonzero;stroke:none"
         d="m 0,0 c 6.69,3.345 11.955,8.021 15.794,14.029 3.84,6.008 5.761,12.913 5.761,20.717 0,11.892 -4.119,21.461 -12.357,28.707 -8.238,7.247 -18.859,10.87 -31.866,10.87 l -46.08,0 0,-22.105 39.852,0 0,-0.006 6.228,0 c 5.699,0 10.221,-1.61 13.564,-4.83 3.345,-3.221 5.017,-7.433 5.017,-12.636 0,-5.327 -1.642,-9.6 -4.925,-12.82 -3.282,-3.221 -7.834,-4.831 -13.656,-4.831 l -20.996,0 0,0.075 -25.084,0 0,-65.48 25.084,0 0,43.293 18.394,0 31.774,-43.293 28.243,0 L 0,0 Z" /></g><g
       transform="translate(475.7544,555.2305)"
       id="g50"><path
         id="path52"
         style="fill:#00c0f3;fill-opacity:1;fill-rule:nonzero;stroke:none"
         d="m 0,0 c -3.18,-0.021 -5.772,2.541 -5.793,5.719 -0.023,3.181 2.54,5.776 5.718,5.797 C 3.104,11.535 5.697,8.974 5.719,5.795 5.741,2.616 3.179,0.021 0,0 m 43.078,-280.883 c 3.178,0.023 5.776,-2.541 5.794,-5.719 0.021,-3.178 -2.539,-5.774 -5.719,-5.794 -3.178,-0.022 -5.773,2.541 -5.794,5.719 -0.021,3.18 2.54,5.776 5.719,5.794 m -128.592,1.088 c -3.179,-0.02 -5.774,2.539 -5.794,5.719 -0.022,3.183 2.539,5.776 5.721,5.796 3.179,0.02 5.773,-2.54 5.794,-5.719 0.019,-3.18 -2.541,-5.773 -5.721,-5.796 m -9.104,220.649 c -3.18,-0.021 -5.773,2.54 -5.794,5.721 -0.019,3.178 2.54,5.772 5.72,5.794 3.18,0.021 5.774,-2.542 5.795,-5.721 0.019,-3.179 -2.541,-5.773 -5.721,-5.794 m 160.099,24.065 c 3.179,0.021 5.772,-2.542 5.793,-5.722 0.022,-3.178 -2.539,-5.772 -5.723,-5.793 -3.179,-0.021 -5.772,2.542 -5.793,5.721 -0.018,3.179 2.543,5.772 5.723,5.794 M 45.41,-84.258 c 0.465,0.796 0.965,1.673 1.524,2.668 7.852,14.089 10.626,13.733 21.216,16.296 12.399,3.003 20,11.555 20.064,22.942 0.057,9.491 -3.972,16.757 -12.062,21.135 -8.081,4.4 -16.369,3.819 -24.298,-1.396 -9.511,-6.256 -12.544,-17.29 -8.311,-29.322 3.618,-10.271 4.591,-13.336 -2.933,-27.59 -0.575,-1.092 -1.049,-2.044 -1.452,-2.878 -1.588,-2.916 -6.778,-10.955 -16.52,-11.946 -9.346,-0.2 -14.392,6.535 -14.392,6.535 l 0,-0.016 c -3.5,5.85 -4.524,9.747 -5.025,12.039 -1.076,7.032 -1.571,15.353 -1.545,21.192 0.077,16.23 4.22,31.883 12.258,39.289 9.41,8.672 11.941,19.896 6.497,29.965 -4.535,8.389 -11.549,12.835 -20.748,12.765 -9.198,-0.047 -16.205,-4.587 -20.63,-13.036 -5.313,-10.137 -2.634,-21.332 6.884,-29.88 8.127,-7.294 12.516,-22.867 12.807,-39.081 0.11,-6.069 -0.36,-13.546 -1.634,-20.471 -2.163,-10.304 -6.047,-16.107 -8.782,-19.061 -3.433,-3.273 -6.457,-5.535 -6.457,-5.535 -1.433,-0.658 -2.625,-1.374 -3.625,-2.148 l 0,0.009 c 0,0 -11.813,-5.369 -22.852,1.699 -4.399,3.206 -9.292,7.82 -13.571,12.351 -11.072,11.727 -12.841,18.449 -12.099,29.326 0.865,12.725 -5.068,22.552 -15.906,26.037 -9.036,2.906 -17.188,1.25 -23.797,-5.149 -6.625,-6.382 -8.612,-14.459 -6.023,-23.59 3.108,-10.955 12.715,-17.164 25.464,-16.743 10.884,0.359 17.36,-1.148 28.693,-12.609 4.371,-4.423 8.784,-9.593 11.825,-14.408 0.154,-0.295 0.252,-0.479 0.252,-0.479 0,0 6.707,-10.204 0.161,-24.683 -0.026,-0.051 -0.03,-0.09 -0.048,-0.135 -3.973,-8.355 -6.188,-17.693 -6.124,-27.545 0.084,-13.144 4.188,-25.342 11.129,-35.435 0,0 6.72,-11.241 1.344,-23.715 -3.016,-5.095 -7.484,-10.672 -11.437,-15.431 -10.299,-12.412 -18.005,-16.206 -28.89,-16.785 -12.742,-0.68 -21.781,-7.695 -23.929,-18.874 -1.792,-9.324 0.838,-17.206 7.989,-22.991 7.135,-5.803 15.389,-6.751 24.14,-3.079 10.499,4.408 15.501,14.699 13.538,27.305 -1.672,10.759 0.271,18.76 10.279,31.393 3.698,4.671 8.519,9.905 13.111,13.829 5.059,3.398 14.932,7.03 31.74,2.381 0.411,-0.074 0.848,-0.149 1.298,-0.223 1.867,-0.393 3.763,-0.699 5.687,-0.923 9.838,-1.739 22.798,-5.441 27.696,-20.455 0.419,-1.289 0.771,-2.307 1.064,-3.125 3.721,-15.208 1.767,-18.796 -4.148,-27.803 -6.999,-10.665 -6.709,-22.104 1.026,-30.46 6.447,-6.967 14.356,-9.518 23.253,-7.186 8.904,2.308 14.56,8.395 16.786,17.623 2.671,11.068 -2.659,21.195 -13.972,27.087 -9.662,5.023 -13.021,6.926 -17.267,22.471 l -0.182,1.038 c -0.492,2.088 -1.045,4.839 -1.428,7.839 l 0.007,0 c -0.061,0 -0.095,-0.064 -0.135,0.171 -0.058,0.396 -0.13,0.098 -0.18,0.497 -1.557,14.541 12.455,23.332 12.455,23.332 l -0.015,0 c 2.683,3 5.128,4.507 7.467,6.867 l 0.838,1.05 c 0,0 7.698,6.838 -0.106,14.918 -7.808,8.083 -15.081,0.195 -15.081,0.195 l -0.827,-0.79 c -7.889,-7.938 -18.388,-12.33 -29.574,-12.398 -23.19,-0.151 -42.186,18.605 -42.335,41.802 -0.085,13.482 6.211,25.552 16.062,33.319 7.09,5.595 16.022,8.967 25.732,9.028 7.078,0.048 13.864,-1.634 19.914,-4.844 3.927,-2.084 7.545,-4.806 10.729,-8.126 l 0.886,-0.927 c 5.027,-3.928 9.907,-5.314 16.548,1.73 4.065,4.312 -0.973,11.739 -0.973,11.739 l -3.341,3.822 c -1.645,1.638 -2.726,2.926 -4.511,4.354 -0.65,0.646 -9.187,9.79 -1.388,22.903 0.07,0.117 0.121,0.216 0.19,0.33" /></g></g></svg>